<?xml version="1.0" standalone="no"?>
<!DOCTYPE svg PUBLIC "-//W3C//DTD SVG 20010904//EN"
 "http://www.w3.org/TR/2001/REC-SVG-20010904/DTD/svg10.dtd">
<svg version="1.0" xmlns="http://www.w3.org/2000/svg"
 width="1250.000000pt" height="1250.000000pt" viewBox="0 0 1250.000000 1250.000000"
 preserveAspectRatio="xMidYMid meet">
<metadata>
Created by potrace 1.14, written by Peter Selinger 2001-2017
</metadata>
<g transform="translate(0.000000,1250.000000) scale(0.100000,-0.100000)"
fill="#000000" stroke="none">
<path d="M6475 12329 c-755 -25 -1400 -157 -2055 -421 -1529 -616 -2795 -1775
-3534 -3238 -390 -771 -610 -1542 -688 -2410 -17 -188 -17 -801 0 -975 54
-561 159 -1032 337 -1510 390 -1047 1066 -1924 1972 -2557 741 -518 1697 -864
2633 -952 219 -21 510 -31 510 -19 0 6 66 13 168 17 1392 56 2659 525 3797
1406 387 299 824 730 1140 1125 739 923 1226 2017 1399 3145 151 985 71 1937
-239 2837 -505 1470 -1598 2609 -3056 3189 -718 285 -1441 395 -2384 363z
m615 -1265 c445 -20 898 -119 1341 -294 l107 -42 6 -56 c82 -723 -36 -1909
-289 -2897 -272 -1068 -713 -1972 -1347 -2767 -180 -225 -312 -373 -542 -606
-304 -308 -535 -515 -909 -816 -109 -87 -196 -160 -194 -162 8 -8 207 -45 321
-60 163 -22 621 -30 813 -15 1161 93 2243 593 3237 1499 637 580 1043 1372
1231 2401 30 163 32 172 38 126 32 -245 32 -689 2 -975 -101 -948 -411 -1790
-942 -2557 -824 -1192 -2059 -2025 -3398 -2292 -372 -75 -838 -109 -1075 -81
-148 18 -475 82 -485 95 -6 7 -53 33 -106 57 -583 273 -1141 804 -1447 1378
-31 56 -53 88 -56 80 -38 -109 -122 -521 -137 -677 l-12 -122 -56 39 c-180
127 -432 350 -589 520 -471 512 -805 1129 -977 1804 -35 133 -37 149 -24 174
8 14 66 79 129 143 118 119 275 243 381 302 32 17 59 34 59 37 -1 3 -34 26
-74 52 -114 74 -526 414 -599 495 -16 18 -16 33 -7 194 22 364 70 669 160
1014 164 631 465 1264 857 1803 61 84 78 101 89 91 25 -20 188 -239 286 -384
375 -552 885 -1515 1304 -2464 14 -31 28 -51 33 -45 21 23 267 710 376 1049
330 1030 518 1849 602 2625 32 291 24 888 -13 1072 -7 34 -9 32 202 93 288 83
632 142 959 165 261 18 431 19 745 4z"/>
</g>
</svg>
