<?xml version="1.0" encoding="UTF-8"?>
<svg id="_圖層_2" data-name="圖層 2" xmlns="http://www.w3.org/2000/svg" viewBox="0 0 97.45 97.52">
  <defs>
    <style>
      .cls-1 {
        fill: #ffbe17;
        font-family: ShipporiMincho-Regular, 'Shippori Mincho';
        font-size: 10px;
      }
    </style>
  </defs>
  <g id="_圖層_1-2" data-name="圖層 1">
    <text class="cls-1" transform="translate(8.59 46.66) rotate(-81.49)"><tspan x="0" y="0">D</tspan></text>
    <text class="cls-1" transform="translate(9.7 39.22) rotate(-71.13)"><tspan x="0" y="0">E</tspan></text>
    <text class="cls-1" transform="translate(11.92 32.68) rotate(-61.27)"><tspan x="0" y="0">L</tspan></text>
    <text class="cls-1" transform="translate(15.18 26.67) rotate(-51.45)"><tspan x="0" y="0">E</tspan></text>
    <text class="cls-1" transform="translate(19.47 21.25) rotate(-41.67)"><tspan x="0" y="0">C</tspan></text>
    <text class="cls-1" transform="translate(24.57 16.66) rotate(-31.72)"><tspan x="0" y="0">T</tspan></text>
    <text class="cls-1" transform="translate(30.62 12.88) rotate(-21.34)"><tspan x="0" y="0">A</tspan></text>
    <text class="cls-1" transform="translate(37.43 10.21) rotate(-11.16)"><tspan x="0" y="0">B</tspan></text>
    <text class="cls-1" transform="translate(44.17 8.86) rotate(-1.41)"><tspan x="0" y="0">L</tspan></text>
    <text class="cls-1" transform="translate(51.01 8.66) rotate(8.33)"><tspan x="0" y="0">E</tspan></text>
    <text class="cls-1" transform="translate(57.9 9.8) rotate(15.05)"><tspan x="0" y="0"> </tspan></text>
    <text class="cls-1" transform="translate(60.24 10.27) rotate(21.78)"><tspan x="0" y="0">C</tspan></text>
    <text class="cls-1" transform="translate(66.62 12.77) rotate(31.93)"><tspan x="0" y="0">A</tspan></text>
    <text class="cls-1" transform="translate(72.86 16.59) rotate(42.78)"><tspan x="0" y="0">N</tspan></text>
    <text class="cls-1" transform="translate(78.67 21.99) rotate(53.3)"><tspan x="0" y="0">E</tspan></text>
    <text class="cls-1" transform="translate(82.83 27.54) rotate(63.14)"><tspan x="0" y="0">L</tspan></text>
    <text class="cls-1" transform="translate(85.93 33.6) rotate(72.99)"><tspan x="0" y="0">É</tspan></text>
    <text class="cls-1" transform="translate(87.95 40.22) rotate(82.44)"><tspan x="0" y="0">S</tspan></text>
    <text class="cls-1" transform="translate(88.86 50.86) rotate(98.51)"><tspan x="0" y="0">D</tspan></text>
    <text class="cls-1" transform="translate(87.75 58.3) rotate(108.87)"><tspan x="0" y="0">E</tspan></text>
    <text class="cls-1" transform="translate(85.54 64.84) rotate(118.73)"><tspan x="0" y="0">L</tspan></text>
    <text class="cls-1" transform="translate(82.27 70.85) rotate(128.55)"><tspan x="0" y="0">E</tspan></text>
    <text class="cls-1" transform="translate(77.98 76.27) rotate(138.33)"><tspan x="0" y="0">C</tspan></text>
    <text class="cls-1" transform="translate(72.89 80.86) rotate(148.28)"><tspan x="0" y="0">T</tspan></text>
    <text class="cls-1" transform="translate(66.83 84.64) rotate(158.66)"><tspan x="0" y="0">A</tspan></text>
    <text class="cls-1" transform="translate(60.03 87.31) rotate(168.84)"><tspan x="0" y="0">B</tspan></text>
    <text class="cls-1" transform="translate(53.29 88.66) rotate(178.59)"><tspan x="0" y="0">L</tspan></text>
    <text class="cls-1" transform="translate(46.45 88.86) rotate(-171.67)"><tspan x="0" y="0">E</tspan></text>
    <text class="cls-1" transform="translate(39.56 87.73) rotate(-164.95)"><tspan x="0" y="0"> </tspan></text>
    <text class="cls-1" transform="translate(37.21 87.25) rotate(-158.22)"><tspan x="0" y="0">C</tspan></text>
    <text class="cls-1" transform="translate(30.83 84.75) rotate(-148.07)"><tspan x="0" y="0">A</tspan></text>
    <text class="cls-1" transform="translate(24.59 80.93) rotate(-137.22)"><tspan x="0" y="0">N</tspan></text>
    <text class="cls-1" transform="translate(18.79 75.53) rotate(-126.7)"><tspan x="0" y="0">E</tspan></text>
    <text class="cls-1" transform="translate(14.63 69.99) rotate(-116.86)"><tspan x="0" y="0">L</tspan></text>
    <text class="cls-1" transform="translate(11.52 63.92) rotate(-107.01)"><tspan x="0" y="0">É</tspan></text>
    <text class="cls-1" transform="translate(9.5 57.3) rotate(-97.56)"><tspan x="0" y="0">S</tspan></text>
  </g>
</svg>